# xmcd
#
# Track frame offsets:
#	180
#	14280
#	31923
#	56013
#	69797
#	81679
#	98189
#	109636
#	130652
#	147399
#	161816
#	179101
#	199854
#	213333
#
# Disc length: 3057 seconds
#
# Revision: 0
# Processed by: cddbd v1.5.2PL0 Copyright (c) Steve Scherf et al.
# Submitted via: audiograbber 1.83.01
#
DISCID=ca0bef0e
DTITLE=Varios - Que tiempos aquellos
DYEAR=1997
DGENRE=Ballad
TTITLE0=Los Golpes - Con la mano en la biblia
TTITLE1=Los Golpes - Vete ya
TTITLE2=Caravana del Amor - Siempre te amaré - Regresa a mi vida
TTITLE3=Caravana del Amor - Quedaste como las demás
TTITLE4=Yaco Monti - Lo que te queda
TTITLE5=Yaco Monti - Siempre te recordaré
TTITLE6=Sahiro - Mi destino es como el viento
TTITLE7=Sahiro - Recuerdo aquel tiempo
TTITLE8=Danny Cabuche - Memorias de un gran amor
TTITLE9=Danny Cabuche - Enfermo de amor
TTITLE10=Heleno - Que pasa entre los dos
TTITLE11=Heleno - No son palabritas
TTITLE12=Tormenta - Llueve en septiembre
TTITLE13=Tormenta - Adolescente tierno
EXTD=
EXTT0=
EXTT1=
EXTT2=
EXTT3=
EXTT4=
EXTT5=
EXTT6=
EXTT7=
EXTT8=
EXTT9=
EXTT10=
EXTT11=
EXTT12=
EXTT13=
PLAYORDER=
